<svg xmlns="http://www.w3.org/2000/svg" width="58.8" height="77.5" viewBox="0 0 58.8 77.5"><defs><style>.a{fill:#2b2c2e;}</style></defs><path class="a" d="M52.7,6.5a3.041,3.041,0,0,1-2.25-.85Q49.6,4.8,49.1,4.2l-3.7-5A29.759,29.759,0,0,1,34.7,1,36.66,36.66,0,0,1,19.35-1.95a21.705,21.705,0,0,1-10-9.1Q5.8-17.2,5.4-26.4q-.1-4.3-.1-8.5t.1-8.6q.4-9.1,4.05-15.2A23.2,23.2,0,0,1,19.6-67.9,34.708,34.708,0,0,1,34.7-71a34.708,34.708,0,0,1,15.1,3.1A23.505,23.505,0,0,1,60-58.7q3.7,6.1,3.9,15.2.2,4.4.2,8.6t-.2,8.5q-.5,13.1-7.2,19.9l7,9.9a1.073,1.073,0,0,1,.2.35,1.775,1.775,0,0,1,.1.65,1.682,1.682,0,0,1-.55,1.5A2.088,2.088,0,0,1,62,6.5Zm-18-17a14.724,14.724,0,0,0,10.5-3.85q4.1-3.85,4.4-12.55.2-4.4.2-8.15t-.2-8.05a20.328,20.328,0,0,0-2.1-9.45,12.394,12.394,0,0,0-5.25-5.3A16.463,16.463,0,0,0,34.7-59.5a16.544,16.544,0,0,0-7.5,1.65,12.043,12.043,0,0,0-5.25,5.3A22.528,22.528,0,0,0,19.7-43.1q-.1,4.3-.1,8.05t.1,8.15q.4,8.7,4.5,12.55A14.725,14.725,0,0,0,34.7-10.5Z" transform="translate(-5.3 71)"/></svg>