<svg xmlns="http://www.w3.org/2000/svg" width="113.524" height="28.8" viewBox="0 0 113.524 28.8"><defs><style>.a{fill:#2b2c2e;}</style></defs><path class="a" d="M9.84.4A10.246,10.246,0,0,1,6.26-.16,8.709,8.709,0,0,1,3.8-1.5,6.2,6.2,0,0,1,2.38-3.04a3.186,3.186,0,0,1-.5-1.16.667.667,0,0,1,.28-.66,1.075,1.075,0,0,1,.6-.22h.6A1.026,1.026,0,0,1,3.78-5a1.473,1.473,0,0,1,.46.44,9.9,9.9,0,0,0,1.2,1.3,4.867,4.867,0,0,0,1.74.98,8.38,8.38,0,0,0,2.66.36,7.7,7.7,0,0,0,3.96-.92,2.969,2.969,0,0,0,1.56-2.72,2.568,2.568,0,0,0-.62-1.8,5.147,5.147,0,0,0-2.1-1.2,36.4,36.4,0,0,0-4-1.08,13.194,13.194,0,0,1-3.86-1.44,4.472,4.472,0,0,1-1.82-1.94,5.885,5.885,0,0,1-.48-2.38,5.285,5.285,0,0,1,.8-2.74,6.057,6.057,0,0,1,2.38-2.2,8.258,8.258,0,0,1,3.98-.86,9.5,9.5,0,0,1,3.34.52,7.708,7.708,0,0,1,2.26,1.26,5.789,5.789,0,0,1,1.3,1.46A3.067,3.067,0,0,1,17-16.8a.7.7,0,0,1-.24.64.956.956,0,0,1-.64.24h-.6a.888.888,0,0,1-.52-.14,1.41,1.41,0,0,1-.36-.38,6.772,6.772,0,0,0-.96-1.2,4.016,4.016,0,0,0-1.5-.9,7.679,7.679,0,0,0-2.54-.34,5.429,5.429,0,0,0-3.56.98,3.128,3.128,0,0,0-1.16,2.5,2.549,2.549,0,0,0,.48,1.54,4.121,4.121,0,0,0,1.8,1.2,27.686,27.686,0,0,0,3.84,1.14,15.2,15.2,0,0,1,4.04,1.38,5.157,5.157,0,0,1,2.1,1.94,5.367,5.367,0,0,1,.62,2.64,5.257,5.257,0,0,1-.9,2.96A6.233,6.233,0,0,1,14.22-.42,10.441,10.441,0,0,1,9.84.4ZM23.8,0a.865.865,0,0,1-.64-.24.865.865,0,0,1-.24-.64V-19.92a.865.865,0,0,1,.24-.64.865.865,0,0,1,.64-.24h.68a.865.865,0,0,1,.64.24.865.865,0,0,1,.24.64v1.4a7.042,7.042,0,0,1,2.38-1.98,7.315,7.315,0,0,1,3.34-.7,6.635,6.635,0,0,1,6.4,3.76,6.839,6.839,0,0,1,2.7-2.74,8.1,8.1,0,0,1,4.1-1.02,7.509,7.509,0,0,1,3.82.98,6.824,6.824,0,0,1,2.68,2.9,10.5,10.5,0,0,1,.98,4.8V-.88a.865.865,0,0,1-.24.64.865.865,0,0,1-.64.24H50.2a.865.865,0,0,1-.64-.24.865.865,0,0,1-.24-.64V-12.12a9.022,9.022,0,0,0-.76-4.1,4.477,4.477,0,0,0-2-2.06,6.072,6.072,0,0,0-2.68-.6,5.573,5.573,0,0,0-2.44.6,4.789,4.789,0,0,0-2.06,2.06,8.455,8.455,0,0,0-.82,4.1V-.88a.865.865,0,0,1-.24.64.865.865,0,0,1-.64.24H37a.865.865,0,0,1-.64-.24.865.865,0,0,1-.24-.64V-12.12a8.634,8.634,0,0,0-.8-4.1,4.682,4.682,0,0,0-2.04-2.06,5.9,5.9,0,0,0-2.6-.6,5.573,5.573,0,0,0-2.44.6,4.789,4.789,0,0,0-2.06,2.06,8.354,8.354,0,0,0-.82,4.06V-.88a.865.865,0,0,1-.24.64.865.865,0,0,1-.64.24ZM65.96.4A9.006,9.006,0,0,1,61.14-.8a7.828,7.828,0,0,1-2.96-3.28,11.209,11.209,0,0,1-1.1-4.64q-.04-.6-.04-1.68t.04-1.68a11.152,11.152,0,0,1,1.1-4.66A7.856,7.856,0,0,1,61.14-20a9.006,9.006,0,0,1,4.82-1.2A9.006,9.006,0,0,1,70.78-20a7.856,7.856,0,0,1,2.96,3.26,11.152,11.152,0,0,1,1.1,4.66q.04.6.04,1.68t-.04,1.68a11.209,11.209,0,0,1-1.1,4.64A7.828,7.828,0,0,1,70.78-.8,9.006,9.006,0,0,1,65.96.4Zm0-2.32a6.1,6.1,0,0,0,4.56-1.8,7.538,7.538,0,0,0,1.88-5.2q.04-.6.04-1.48t-.04-1.48a7.518,7.518,0,0,0-1.88-5.22,6.132,6.132,0,0,0-4.56-1.78A6.132,6.132,0,0,0,61.4-17.1a7.517,7.517,0,0,0-1.88,5.22q-.04.6-.04,1.48t.04,1.48a7.538,7.538,0,0,0,1.88,5.2A6.1,6.1,0,0,0,65.96-1.92ZM81.28,0a.865.865,0,0,1-.64-.24.865.865,0,0,1-.24-.64V-27.52a.865.865,0,0,1,.24-.64.865.865,0,0,1,.64-.24h.68a.865.865,0,0,1,.64.24.865.865,0,0,1,.24.64v14.16l8.92-6.76a4.958,4.958,0,0,1,.82-.56,2.218,2.218,0,0,1,.86-.12h.76a.784.784,0,0,1,.58.22A.784.784,0,0,1,95-20a.948.948,0,0,1-.1.38,1.047,1.047,0,0,1-.42.42L84.36-11.52,95.48-1.6q.52.48.52.8a.784.784,0,0,1-.22.58A.784.784,0,0,1,95.2,0h-.64a2.627,2.627,0,0,1-.86-.1,3.5,3.5,0,0,1-.82-.58L82.84-9.6V-.88a.865.865,0,0,1-.24.64.865.865,0,0,1-.64.24Zm25.28.4a7.864,7.864,0,0,1-6.16-2.54A10.919,10.919,0,0,1,97.8-8.8q-.04-.6-.04-1.6T97.8-12a12.263,12.263,0,0,1,1.28-4.8,8.052,8.052,0,0,1,2.98-3.24,8.467,8.467,0,0,1,4.5-1.16,8.725,8.725,0,0,1,4.76,1.24,8.036,8.036,0,0,1,3.02,3.56,13.2,13.2,0,0,1,1.06,5.52v.6a.829.829,0,0,1-.26.64.935.935,0,0,1-.66.24H100.24V-9a8.9,8.9,0,0,0,.84,3.42,6.755,6.755,0,0,0,2.16,2.64,5.485,5.485,0,0,0,3.32,1.02,6.9,6.9,0,0,0,2.86-.52,7.009,7.009,0,0,0,1.82-1.14,5.465,5.465,0,0,0,.88-.94,2.032,2.032,0,0,1,.56-.62,1.517,1.517,0,0,1,.64-.1h.64a.929.929,0,0,1,.62.22.624.624,0,0,1,.22.58,2.947,2.947,0,0,1-.62,1.38,7.564,7.564,0,0,1-1.64,1.62,9.189,9.189,0,0,1-2.58,1.32A10.46,10.46,0,0,1,106.56.4Zm-6.32-12.04h12.72v-.16a8.288,8.288,0,0,0-.76-3.6,6.085,6.085,0,0,0-2.2-2.54,6.153,6.153,0,0,0-3.44-.94,6.055,6.055,0,0,0-3.42.94,6,6,0,0,0-2.16,2.54,8.478,8.478,0,0,0-.74,3.6Z" transform="translate(-1.876 28.4)"/></svg>